<?xml version="1.0" encoding="UTF-8" standalone="no"?>
<svg
   width="100"
   height="100"
   fill="#ffffff"
   class="bi bi-lock-fill"
   viewBox="0 0 100 100"
   version="1.1"
   id="svg1"
   xmlns="http://www.w3.org/2000/svg"
   xmlns:svg="http://www.w3.org/2000/svg">
  <defs
     id="defs1" />
  <path
     fill-rule="evenodd"
     d="m 50,24.999996 a 12.5,12.5 0 0 1 12.5,12.5 v 6.40625 a 7.8125,7.8125 0 0 1 6.25,7.65625 v 15.625 a 7.8125,7.8125 0 0 1 -7.8125,7.8125 h -21.875 a 7.8125,7.8125 0 0 1 -7.8125,-7.8125 v -15.625 a 7.8125,7.8125 0 0 1 6.25,-7.65625 v -6.40625 a 12.5,12.5 0 0 1 12.5,-12.5 m 0,3.125 a 9.375,9.375 0 0 0 -9.375,9.375 v 6.25 h 18.75 v -6.25 A 9.375,9.375 0 0 0 50,28.124996"
     id="path1"
     style="stroke-width:3.125" />
  <circle
     cx="50"
     cy="49.999996"
     r="50"
     id="circle1"
     style="opacity:0.25" />
</svg>
