<?xml version="1.0" encoding="UTF-8" standalone="no"?>
<svg
   width="100"
   height="100"
   fill="#ffffff"
   class="bi bi-lock-fill"
   viewBox="0 0 100 100"
   version="1.1"
   id="svg1"
   xmlns="http://www.w3.org/2000/svg"
   xmlns:svg="http://www.w3.org/2000/svg">
  <defs
     id="defs1" />
  <circle
     cx="50"
     cy="50"
     r="50"
     id="circle1"
     style="opacity:0.25" />
  <g
     id="g2"
     transform="matrix(3.1248254,0,0,3.1248254,-124.99162,-199.98603)">
    <path
       fill-rule="evenodd"
       d="M 58,84.5 A 0.5,0.5 0 0 1 57.5,85 h -8 A 0.5,0.5 0 0 1 49,84.5 v -9 A 0.5,0.5 0 0 1 49.5,75 h 8 a 0.5,0.5 0 0 1 0.5,0.5 v 2 a 0.5,0.5 0 0 0 1,0 v -2 A 1.5,1.5 0 0 0 57.5,74 h -8 A 1.5,1.5 0 0 0 48,75.5 v 9 a 1.5,1.5 0 0 0 1.5,1.5 h 8 A 1.5,1.5 0 0 0 59,84.5 v -2 a 0.5,0.5 0 0 0 -1,0 z"
       id="path1" />
    <path
       fill-rule="evenodd"
       d="m 63.854,80.354 a 0.5,0.5 0 0 0 0,-0.708 l -3,-3 a 0.5006316,0.5006316 0 0 0 -0.708,0.708 L 62.293,79.5 H 53.5 a 0.5,0.5 0 0 0 0,1 h 8.793 l -2.147,2.146 a 0.5006316,0.5006316 0 0 0 0.708,0.708 z"
       id="path2" />
  </g>
</svg>
