<?xml version="1.0" encoding="UTF-8" standalone="no"?>
<svg
   width="100"
   height="100"
   fill="#ffffff"
   class="bi bi-lock-fill"
   viewBox="0 0 100 100"
   version="1.1"
   id="svg1"
   xmlns="http://www.w3.org/2000/svg"
   xmlns:svg="http://www.w3.org/2000/svg">
  <defs
     id="defs1" />
  <circle
     cx="50"
     cy="50"
     r="50"
     id="circle1"
     style="opacity:0.25" />
  <g
     id="g2"
     transform="matrix(4.1666667,0,0,4.1666667,70.833334,-491.07482)">
    <path
       fill-rule="evenodd"
       d="m -5.00102,125.71591 a 5,5 0 1 0 4.546,2.914 0.5,0.5 0 0 1 0.908,-0.417 6,6 0 1 1 -5.454,-3.497 z"
       id="path1" />
    <path
       d="m -5.00102,127.18191 v -3.932 a 0.25,0.25 0 0 1 0.41,-0.192 l 2.36,1.966 c 0.12,0.1 0.12,0.284 0,0.384 l -2.36,1.966 a 0.25,0.25 0 0 1 -0.41,-0.192"
       id="path2" />
  </g>
</svg>
