<?xml version="1.0" encoding="UTF-8" standalone="no"?>
<svg
   width="100"
   height="100"
   fill="#ffffff"
   class="bi bi-lock-fill"
   viewBox="0 0 100 100"
   version="1.1"
   id="svg1"
   xmlns="http://www.w3.org/2000/svg"
   xmlns:svg="http://www.w3.org/2000/svg">
  <defs
     id="defs1" />
  <path
     fill-rule="evenodd"
     d="m 50,25 a 12.5,12.5 0 0 1 12.5,12.5 v 6.40625 a 7.8125,7.8125 0 0 1 6.25,7.65625 v 15.625 A 7.8125,7.8125 0 0 1 60.9375,75 H 39.0625 A 7.8125,7.8125 0 0 1 31.25,67.1875 V 51.5625 A 7.8125,7.8125 0 0 1 37.5,43.90625 V 37.5 A 12.5,12.5 0 0 1 50,25 m 0,3.125 A 9.375,9.375 0 0 0 40.625,37.5 v 6.25 h 18.75 V 37.5 A 9.375,9.375 0 0 0 50,28.125"
     id="path1"
     style="stroke-width:3.125" />
</svg>
