<?xml version="1.0" encoding="UTF-8" standalone="no"?>
<svg
   width="100"
   height="100"
   fill="#ffffff"
   class="bi bi-lock-fill"
   viewBox="0 0 100 100"
   version="1.1"
   id="svg1"
   sodipodi:docname="suspend-selected.svg"
   xmlns:inkscape="http://www.inkscape.org/namespaces/inkscape"
   xmlns:sodipodi="http://sodipodi.sourceforge.net/DTD/sodipodi-0.dtd"
   xmlns="http://www.w3.org/2000/svg"
   xmlns:svg="http://www.w3.org/2000/svg">
  <sodipodi:namedview
     id="namedview1"
     pagecolor="#505050"
     bordercolor="#eeeeee"
     borderopacity="1"
     inkscape:showpageshadow="0"
     inkscape:pageopacity="0"
     inkscape:pagecheckerboard="0"
     inkscape:deskcolor="#505050">
    <inkscape:page
       x="0"
       y="0"
       width="100"
       height="100"
       id="page2"
       margin="0"
       bleed="0" />
  </sodipodi:namedview>
  <defs
     id="defs1" />
  <g
     id="g2"
     transform="matrix(5.5555556,0,0,5.5555556,-413.88889,86.111111)">
    <g
       id="g1">
      <path
         d="m 81.5,-11 a 0.5,0.5 0 0 1 0.5,0.5 v 8 a 0.5,0.5 0 0 1 -1,0 v -8 a 0.5,0.5 0 0 1 0.5,-0.5 m 4,0 a 0.5,0.5 0 0 1 0.5,0.5 v 8 a 0.5,0.5 0 0 1 -1,0 v -8 a 0.5,0.5 0 0 1 0.5,-0.5"
         id="path1" />
    </g>
  </g>
</svg>
