<?xml version="1.0" encoding="UTF-8" standalone="no"?>
<svg
   width="100"
   height="100"
   fill="#ffffff"
   class="bi bi-lock-fill"
   viewBox="0 0 100 100"
   version="1.1"
   id="svg1"
   xmlns="http://www.w3.org/2000/svg"
   xmlns:svg="http://www.w3.org/2000/svg">
  <defs
     id="defs1" />
  <circle
     cx="50"
     cy="50"
     r="50"
     id="circle1"
     style="opacity:0.25" />
  <g
     id="g2"
     transform="matrix(5.5555556,0,0,5.5555556,-413.88889,86.111111)">
    <g
       id="g1">
      <path
         d="m 81.5,-11 a 0.5,0.5 0 0 1 0.5,0.5 v 8 a 0.5,0.5 0 0 1 -1,0 v -8 a 0.5,0.5 0 0 1 0.5,-0.5 m 4,0 a 0.5,0.5 0 0 1 0.5,0.5 v 8 a 0.5,0.5 0 0 1 -1,0 v -8 a 0.5,0.5 0 0 1 0.5,-0.5"
         id="path1" />
    </g>
  </g>
</svg>
